<svg width="512" height="512" viewBox="0 0 512 512" fill="none" xmlns="http://www.w3.org/2000/svg">
<path d="M396.374 512H115.626C51.9303 512 0 460.475 0 396.374V115.626C0 51.9303 51.5246 0 115.626 0H396.374C460.07 0 512 51.5246 512 115.626V396.374C511.594 460.07 460.07 512 396.374 512Z" fill="#040000"/>
<path d="M161.472 137.534L67.7537 313.204L100.616 374.465L197.985 191.898H244.235L215.43 137.534H161.472Z" fill="white"/>
<path d="M349.719 137.534H273.446L146.866 374.465H212.59L311.583 188.652L381.77 320.101H335.519L311.583 275.068L258.841 374.465H410.98L443.437 312.798L349.719 137.534Z" fill="white"/>
</svg>
